<?xml version="1.0" encoding="UTF-8" standalone="no"?>
<!-- Created with Inkscape (http://www.inkscape.org/) -->

<svg
   xmlns:osb="http://www.openswatchbook.org/uri/2009/osb"
   xmlns:dc="http://purl.org/dc/elements/1.1/"
   xmlns:cc="http://creativecommons.org/ns#"
   xmlns:rdf="http://www.w3.org/1999/02/22-rdf-syntax-ns#"
   xmlns:svg="http://www.w3.org/2000/svg"
   xmlns="http://www.w3.org/2000/svg"
   xmlns:sodipodi="http://sodipodi.sourceforge.net/DTD/sodipodi-0.dtd"
   xmlns:inkscape="http://www.inkscape.org/namespaces/inkscape"
   width="53.358093mm"
   height="102.90165mm"
   viewBox="0 0 53.358093 102.90165"
   version="1.1"
   id="svg8"
   inkscape:version="0.92.4 (5da689c313, 2019-01-14)"
   sodipodi:docname="IC2_diag.svg">
  <defs
     id="defs2">
    <linearGradient
       id="linearGradient5476"
       osb:paint="solid">
      <stop
         style="stop-color:#ffffff;stop-opacity:1;"
         offset="0"
         id="stop5474" />
    </linearGradient>
  </defs>
  <sodipodi:namedview
     id="base"
     pagecolor="#ffffff"
     bordercolor="#666666"
     borderopacity="1.0"
     inkscape:pageopacity="0.0"
     inkscape:pageshadow="2"
     inkscape:zoom="0.98994949"
     inkscape:cx="-113.23659"
     inkscape:cy="158.36983"
     inkscape:document-units="mm"
     inkscape:current-layer="layer1"
     showgrid="false"
     fit-margin-top="0"
     fit-margin-left="0"
     fit-margin-right="0"
     fit-margin-bottom="0"
     inkscape:window-width="1366"
     inkscape:window-height="745"
     inkscape:window-x="-8"
     inkscape:window-y="-8"
     inkscape:window-maximized="1" />
  <metadata
     id="metadata5">
    <rdf:RDF>
      <cc:Work
         rdf:about="">
        <dc:format>image/svg+xml</dc:format>
        <dc:type
           rdf:resource="http://purl.org/dc/dcmitype/StillImage" />
        <dc:title></dc:title>
      </cc:Work>
    </rdf:RDF>
  </metadata>
  <g
     inkscape:label="Capa 1"
     inkscape:groupmode="layer"
     id="layer1"
     transform="translate(-70.140835,-20.554212)">
    <g
       id="g6946"
       transform="matrix(0.36755391,0,0,0.36911186,56.375872,14.803109)"
       style="stroke-width:2.7149415">
      <rect
         rx="19.633251"
         ry="19.550383"
         y="16.853439"
         x="65.723351"
         height="27.022995"
         width="27.022995"
         id="rect4539"
         style="fill:none;fill-opacity:1;stroke:#000000;stroke-width:2.54503703;stroke-miterlimit:4;stroke-dasharray:none;stroke-opacity:1" />
      <text
         id="text4543"
         y="33.472244"
         x="73.231857"
         style="font-style:normal;font-variant:normal;font-weight:normal;font-stretch:normal;font-size:10.58333302px;line-height:1.25;font-family:'Segoe Script';-inkscape-font-specification:'Segoe Script';letter-spacing:0px;word-spacing:0px;fill:#000000;fill-opacity:1;stroke:none;stroke-width:0.71832824"
         xml:space="preserve"><tspan
           style="font-style:normal;font-variant:normal;font-weight:normal;font-stretch:normal;font-family:'Segoe Script';-inkscape-font-specification:'Segoe Script';stroke-width:0.71832824"
           y="33.472244"
           x="73.231857"
           id="tspan4541"
           sodipodi:role="line">IR</tspan></text>
    </g>
    <path
       style="fill:none;fill-opacity:1;stroke:#000000;stroke-width:0.93741876;stroke-miterlimit:4;stroke-dasharray:none;stroke-opacity:1"
       d="m 71.310968,43.973443 28.325705,-0.08543 -1.454793,6.407056 H 72.680186 Z"
       id="rect4545"
       inkscape:connector-curvature="0"
       sodipodi:nodetypes="ccccc" />
    <path
       sodipodi:nodetypes="ccccc"
       inkscape:connector-curvature="0"
       id="path4549"
       d="m 70.721552,83.760674 28.325704,-0.08543 -1.454793,6.407092 H 72.09077 Z"
       style="fill:none;fill-opacity:1;stroke:#000000;stroke-width:0.93741876;stroke-miterlimit:4;stroke-dasharray:none;stroke-opacity:1" />
    <path
       style="fill:none;fill-opacity:1;stroke:#000000;stroke-width:0.93741876;stroke-miterlimit:4;stroke-dasharray:none;stroke-opacity:1"
       d="m 70.721552,104.4649 28.325704,-0.0854 -1.454793,6.4071 H 72.09077 Z"
       id="path4551"
       inkscape:connector-curvature="0"
       sodipodi:nodetypes="ccccc" />
    <path
       style="fill:#000000;stroke-width:1"
       d="m 81.261626,98.837148 c 0.0036,-0.02174 0.02338,-0.05485 0.04403,-0.07362 0.03527,-0.03208 0.09004,-0.03444 0.906247,-0.03926 l 0.868704,-0.0051 v -1.454799 c 0,-1.070731 0.0056,-1.465407 0.02132,-1.494995 0.03099,-0.05843 0.07224,-0.08497 0.133097,-0.08564 0.05949,-7.38e-4 0.107202,0.04438 1.178877,1.112426 l 0.572653,0.570717 0.646206,-0.644676 c 0.852149,-0.850128 1.016306,-1.008536 1.063186,-1.02595 0.0481,-0.01787 0.136731,0.01617 0.161075,0.06184 0.01085,0.02038 0.01763,0.59506 0.01763,1.497077 v 1.464008 l 0.881409,0.0051 0.881409,0.0051 0.03503,0.04345 c 0.01926,0.02392 0.03503,0.07047 0.03503,0.103484 0,0.05493 -0.09694,0.156781 -1.140963,1.19884 -2.689469,2.68439 -2.510636,2.51037 -2.579724,2.51037 -0.05766,0 -0.113219,-0.0505 -0.714029,-0.64958 -0.358327,-0.35727 -1.177431,-1.17292 -1.820231,-1.81256 -0.642801,-0.639633 -1.175189,-1.181826 -1.183086,-1.204865 -0.0079,-0.02303 -0.01144,-0.05966 -0.0079,-0.08138 z m 2.120789,1.796172 c 0.876688,0.87124 1.59866,1.58408 1.604381,1.58408 0.01417,0 3.196789,-3.16372 3.204471,-3.185439 0.0037,-0.01059 -0.28511,-0.01727 -0.745397,-0.01727 -0.413327,0 -0.764857,-0.0051 -0.781176,-0.01144 -0.0831,-0.03204 -0.0833,-0.03554 -0.0833,-1.464052 v -1.348473 l -0.747022,0.748105 c -0.410863,0.411456 -0.769648,0.756738 -0.797301,0.767298 -0.03244,0.01237 -0.06633,0.01307 -0.09555,0.0018 -0.0249,-0.0095 -0.382519,-0.353041 -0.79471,-0.763408 -0.412194,-0.410371 -0.75473,-0.746127 -0.761193,-0.746127 -0.0065,0 -0.01176,0.614472 -0.01176,1.365489 v 1.365489 l -0.03985,0.0426 -0.03985,0.0426 h -0.758973 c -0.46494,0 -0.756607,0.0067 -0.752865,0.01727 0.0033,0.0095 0.723401,0.730111 1.60009,1.601358 z m -0.278358,-7.379281 c 0.03377,-0.06702 0.109886,-0.104706 0.167195,-0.08278 0.02558,0.0098 0.422676,0.389841 0.882438,0.844554 l 0.835928,0.826755 0.534704,-0.5323 c 1.154838,-1.149647 1.140978,-1.136547 1.202531,-1.136547 0.07726,0 0.147801,0.06902 0.147801,0.144614 0,0.05261 -0.08872,0.147269 -0.889711,0.949216 -0.489341,0.489922 -0.910799,0.901869 -0.936573,0.91543 -0.02734,0.01436 -0.0671,0.0196 -0.09546,0.01255 -0.03097,-0.0077 -0.367672,-0.330447 -0.928194,-0.889652 -0.483779,-0.482635 -0.89406,-0.89823 -0.911732,-0.923536 -0.03811,-0.05458 -0.03908,-0.06846 -0.0089,-0.128292 z m -0.0027,1.260281 c 0.03296,-0.05921 0.07354,-0.08283 0.142307,-0.08283 0.06045,0 0.115696,0.05145 0.903769,0.841638 l 0.839388,0.841634 0.839387,-0.841634 c 0.762222,-0.764261 0.844863,-0.841638 0.89894,-0.841638 0.07967,0 0.149245,0.06988 0.150375,0.151019 8.46e-4,0.056 -0.06853,0.129591 -0.902689,0.958428 -0.496944,0.493772 -0.922092,0.902604 -0.944773,0.90851 -0.02268,0.0059 -0.06031,0.0059 -0.08361,5.5e-5 -0.06175,-0.01554 -1.843193,-1.794924 -1.854516,-1.852351 -0.005,-0.02532 1.37e-4,-0.06258 0.01142,-0.08283 z"
       id="path6937"
       inkscape:connector-curvature="0" />
    <path
       inkscape:connector-curvature="0"
       id="path6939"
       d="m 81.851042,56.901301 c 0.0036,-0.02174 0.02338,-0.05485 0.04403,-0.07362 0.03527,-0.03208 0.09004,-0.03444 0.906247,-0.03926 l 0.868703,-0.0051 v -1.454794 c 0,-1.070725 0.0056,-1.4654 0.02132,-1.494987 0.03099,-0.05843 0.07224,-0.08497 0.133097,-0.08564 0.05949,-7.39e-4 0.107201,0.04438 1.178876,1.112419 l 0.572654,0.570713 0.646206,-0.644671 c 0.852149,-0.850123 1.016306,-1.00853 1.063186,-1.025945 0.0481,-0.01787 0.13673,0.01617 0.161074,0.06184 0.01085,0.02038 0.01763,0.595057 0.01763,1.497068 v 1.464004 l 0.881409,0.0051 0.881408,0.0051 0.03503,0.04346 c 0.01926,0.02392 0.03503,0.07047 0.03503,0.103485 0,0.05493 -0.09694,0.15678 -1.140963,1.198838 -2.68947,2.684392 -2.510637,2.510367 -2.579724,2.510367 -0.05766,0 -0.11322,-0.05054 -0.71403,-0.649578 -0.358326,-0.357267 -1.17743,-1.172916 -1.82023,-1.812553 -0.642802,-0.639638 -1.175189,-1.18183 -1.183086,-1.20487 -0.0079,-0.02303 -0.01144,-0.05966 -0.0079,-0.08138 z m 2.120789,1.796172 c 0.876688,0.871244 1.598659,1.584084 1.604381,1.584084 0.01417,0 3.196788,-3.163724 3.204471,-3.185443 0.0037,-0.01059 -0.28511,-0.01727 -0.745397,-0.01727 -0.413328,0 -0.764857,-0.0051 -0.781176,-0.01144 -0.0831,-0.03204 -0.0833,-0.03555 -0.0833,-1.46405 v -1.348466 l -0.747023,0.748102 c -0.410862,0.411454 -0.769648,0.756734 -0.7973,0.767294 -0.03244,0.01237 -0.06633,0.01307 -0.09555,0.0018 -0.0249,-0.0095 -0.382519,-0.353038 -0.794711,-0.763403 -0.412194,-0.410369 -0.754729,-0.746123 -0.761193,-0.746123 -0.0065,0 -0.01176,0.614468 -0.01176,1.365481 v 1.365486 l -0.03985,0.0426 -0.03985,0.0426 h -0.758974 c -0.464939,0 -0.756606,0.0067 -0.752864,0.01727 0.0033,0.0095 0.7234,0.730111 1.600089,1.601359 z M 83.693472,51.31822 c 0.03377,-0.06702 0.109887,-0.104706 0.167196,-0.08278 0.02558,0.0098 0.422676,0.389839 0.882438,0.844549 l 0.835928,0.82675 0.534704,-0.532297 c 1.154838,-1.14964 1.140978,-1.13654 1.202531,-1.13654 0.07726,0 0.1478,0.06902 0.1478,0.144613 0,0.05261 -0.08872,0.147267 -0.88971,0.94921 -0.489342,0.48992 -0.9108,0.901865 -0.936574,0.915426 -0.02734,0.01436 -0.0671,0.0196 -0.09546,0.01255 -0.03097,-0.0077 -0.367672,-0.330446 -0.928194,-0.889647 -0.483779,-0.482633 -0.894061,-0.898225 -0.911733,-0.923531 -0.03811,-0.05458 -0.03908,-0.06846 -0.0089,-0.128291 z m -0.0027,1.260273 c 0.03296,-0.05921 0.07354,-0.08283 0.142308,-0.08283 0.06045,0 0.115695,0.05146 0.903768,0.841634 l 0.839389,0.841629 0.839387,-0.841629 c 0.762221,-0.764257 0.844863,-0.841634 0.89894,-0.841634 0.07967,0 0.149244,0.06988 0.150375,0.151019 8.45e-4,0.056 -0.06853,0.12959 -0.90269,0.958423 -0.496943,0.493768 -0.922091,0.902598 -0.944773,0.908504 -0.02268,0.0059 -0.06031,0.0059 -0.08361,5.5e-5 -0.06175,-0.01554 -1.843194,-1.794914 -1.854517,-1.852339 -0.005,-0.02532 1.37e-4,-0.06258 0.01142,-0.08283 z"
       style="fill:#000000;stroke-width:1" />
    <path
       style="fill:#000000;stroke-width:1"
       d="m 81.851042,39.127011 c 0.0036,-0.02174 0.02338,-0.05485 0.04403,-0.07362 0.03527,-0.03208 0.09004,-0.03444 0.906247,-0.03926 l 0.868703,-0.0051 V 37.55424 c 0,-1.070726 0.0056,-1.4654 0.02132,-1.494987 0.03099,-0.05843 0.07224,-0.08497 0.133097,-0.08564 0.05949,-7.38e-4 0.107201,0.04438 1.178876,1.112419 l 0.572654,0.570714 0.646206,-0.644671 c 0.852149,-0.850123 1.016306,-1.00853 1.063186,-1.025945 0.0481,-0.01787 0.13673,0.01617 0.161074,0.06184 0.01085,0.02037 0.01763,0.595057 0.01763,1.497068 v 1.464001 l 0.881409,0.0051 0.881408,0.0051 0.03503,0.04346 c 0.01926,0.02392 0.03503,0.07047 0.03503,0.103484 0,0.05493 -0.09694,0.156782 -1.140963,1.198834 -2.68947,2.684377 -2.510637,2.510353 -2.579724,2.510353 -0.05766,0 -0.11322,-0.05054 -0.71403,-0.649575 -0.358326,-0.357265 -1.17743,-1.172909 -1.82023,-1.812543 -0.642802,-0.639633 -1.175189,-1.181823 -1.183086,-1.204865 -0.0079,-0.02303 -0.01144,-0.05966 -0.0079,-0.08138 z m 2.120789,1.796162 c 0.876688,0.871239 1.598659,1.584076 1.604381,1.584076 0.01417,0 3.196788,-3.163707 3.204471,-3.185425 0.0037,-0.01059 -0.28511,-0.01727 -0.745397,-0.01727 -0.413328,0 -0.764857,-0.0051 -0.781176,-0.01144 -0.0831,-0.03204 -0.0833,-0.03555 -0.0833,-1.464044 v -1.348466 l -0.747023,0.748101 c -0.410862,0.411455 -0.769648,0.756734 -0.7973,0.767295 -0.03244,0.01237 -0.06633,0.01307 -0.09555,0.0018 -0.0249,-0.0095 -0.382519,-0.353038 -0.794711,-0.763404 -0.412194,-0.410368 -0.754729,-0.746123 -0.761193,-0.746123 -0.0065,0 -0.01176,0.614469 -0.01176,1.365481 v 1.365481 l -0.03985,0.0426 -0.03985,0.0426 h -0.758974 c -0.464939,0 -0.756606,0.0067 -0.752864,0.01727 0.0033,0.0095 0.7234,0.730106 1.600089,1.601349 z m -0.278359,-7.379238 c 0.03377,-0.06702 0.109887,-0.104706 0.167196,-0.08278 0.02558,0.0098 0.422676,0.389839 0.882438,0.844549 l 0.835928,0.82675 0.534704,-0.532297 c 1.154838,-1.14964 1.140978,-1.13654 1.202531,-1.13654 0.07726,0 0.1478,0.06902 0.1478,0.144613 0,0.05261 -0.08872,0.147267 -0.88971,0.94921 -0.489342,0.48992 -0.9108,0.901865 -0.936574,0.915426 -0.02734,0.01436 -0.0671,0.0196 -0.09546,0.01255 -0.03097,-0.0077 -0.367672,-0.330446 -0.928194,-0.889647 -0.483779,-0.482633 -0.894061,-0.898225 -0.911733,-0.923531 -0.03811,-0.05458 -0.03908,-0.06846 -0.0089,-0.128291 z m -0.0027,1.260273 c 0.03296,-0.05921 0.07354,-0.08283 0.142308,-0.08283 0.06045,0 0.115695,0.05145 0.903768,0.841634 l 0.839389,0.841629 0.839387,-0.841629 c 0.762221,-0.764257 0.844863,-0.841634 0.89894,-0.841634 0.07967,0 0.149244,0.06988 0.150375,0.151019 8.45e-4,0.056 -0.06853,0.12959 -0.90269,0.958423 -0.496943,0.493768 -0.922091,0.902598 -0.944773,0.908504 -0.02268,0.0059 -0.06031,0.0059 -0.08361,5.5e-5 -0.06175,-0.01554 -1.843194,-1.794914 -1.854517,-1.85234 -0.005,-0.02532 1.37e-4,-0.06258 0.01142,-0.08283 z"
       id="path6941"
       inkscape:connector-curvature="0" />
    <g
       id="g6959"
       transform="matrix(0.53572452,0,0,0.53885544,27.452372,16.201419)"
       style="stroke-width:1.86120021">
      <rect
         rx="11.136466"
         ry="7.2138228"
         y="83.718918"
         x="99.424271"
         height="16.46468"
         width="18.174316"
         id="rect6950"
         style="fill:#000000;fill-opacity:0;stroke:#000000;stroke-width:1.74472404;stroke-miterlimit:4;stroke-dasharray:none;stroke-opacity:1" />
      <text
         transform="scale(1.001193,0.99880844)"
         id="text6954"
         y="94.029663"
         x="102.99306"
         style="font-style:normal;font-weight:normal;font-size:5.61569452px;line-height:1.25;font-family:sans-serif;letter-spacing:0px;word-spacing:0px;fill:#000000;fill-opacity:1;stroke:none;stroke-width:0.49244255"
         xml:space="preserve"><tspan
           style="stroke-width:0.49244255"
           y="94.029663"
           x="102.99306"
           id="tspan6952"
           sodipodi:role="line">IC-1</tspan></text>
    </g>
    <path
       style="fill:#000000;stroke-width:1"
       d="m 81.851042,76.433593 c 0.0036,-0.02174 0.02338,-0.05485 0.04403,-0.07362 0.03527,-0.03208 0.09004,-0.03444 0.906247,-0.03926 l 0.868703,-0.0051 v -1.454799 c 0,-1.070731 0.0056,-1.465408 0.02132,-1.494996 0.03099,-0.05843 0.07224,-0.08497 0.133097,-0.08564 0.05949,-7.39e-4 0.107201,0.04438 1.178876,1.112425 l 0.572654,0.570717 0.646206,-0.644676 c 0.852149,-0.850127 1.016306,-1.008535 1.063186,-1.02595 0.0481,-0.01787 0.13673,0.01617 0.161074,0.06184 0.01085,0.02038 0.01763,0.59506 0.01763,1.497077 v 1.464009 l 0.881409,0.0051 0.881408,0.0051 0.03503,0.04346 c 0.01926,0.02392 0.03503,0.07047 0.03503,0.103484 0,0.05493 -0.09694,0.15678 -1.140963,1.198838 -2.68947,2.684392 -2.510637,2.510367 -2.579724,2.510367 -0.05766,0 -0.11322,-0.05054 -0.71403,-0.649578 -0.358326,-0.357267 -1.17743,-1.172916 -1.82023,-1.812553 -0.642802,-0.639638 -1.175189,-1.18183 -1.183086,-1.20487 -0.0079,-0.02303 -0.01144,-0.05966 -0.0079,-0.08138 z m 2.120789,1.796172 c 0.876688,0.871245 1.598659,1.584084 1.604381,1.584084 0.01417,0 3.196788,-3.163724 3.204471,-3.185442 0.0037,-0.01059 -0.28511,-0.01728 -0.745397,-0.01728 -0.413328,0 -0.764857,-0.0051 -0.781176,-0.01144 -0.0831,-0.03204 -0.0833,-0.03555 -0.0833,-1.464053 v -1.348472 l -0.747023,0.748104 c -0.410862,0.411457 -0.769648,0.756739 -0.7973,0.767299 -0.03244,0.01237 -0.06633,0.01307 -0.09555,0.0018 -0.0249,-0.0095 -0.382519,-0.353041 -0.794711,-0.763409 -0.412194,-0.410371 -0.754729,-0.746126 -0.761193,-0.746126 -0.0065,0 -0.01176,0.614472 -0.01176,1.365489 v 1.365488 l -0.03985,0.0426 -0.03985,0.0426 h -0.758974 c -0.464939,0 -0.756606,0.0067 -0.752864,0.01728 0.0033,0.0095 0.7234,0.73011 1.600089,1.601358 z m -0.278359,-7.37928 c 0.03377,-0.06702 0.109887,-0.104706 0.167196,-0.08278 0.02558,0.0098 0.422676,0.389841 0.882438,0.844553 l 0.835928,0.826756 0.534704,-0.5323 c 1.154838,-1.149647 1.140978,-1.136547 1.202531,-1.136547 0.07726,0 0.1478,0.06902 0.1478,0.144614 0,0.05261 -0.08872,0.147268 -0.88971,0.949215 -0.489342,0.489923 -0.9108,0.90187 -0.936574,0.915431 -0.02734,0.01436 -0.0671,0.0196 -0.09546,0.01255 -0.03097,-0.0077 -0.367672,-0.330448 -0.928194,-0.889652 -0.483779,-0.482636 -0.894061,-0.89823 -0.911733,-0.923536 -0.03811,-0.05458 -0.03908,-0.06846 -0.0089,-0.128293 z m -0.0027,1.26028 c 0.03296,-0.05921 0.07354,-0.08283 0.142308,-0.08283 0.06045,0 0.115695,0.05145 0.903768,0.841638 l 0.839389,0.841634 0.839387,-0.841634 c 0.762221,-0.764261 0.844863,-0.841638 0.89894,-0.841638 0.07967,0 0.149244,0.06988 0.150375,0.151018 8.45e-4,0.056 -0.06853,0.129592 -0.90269,0.958429 -0.496943,0.493772 -0.922091,0.902604 -0.944773,0.908509 -0.02268,0.0059 -0.06031,0.0059 -0.08361,5.6e-5 -0.06175,-0.01554 -1.843194,-1.794925 -1.854517,-1.852351 -0.005,-0.02532 1.37e-4,-0.06258 0.01142,-0.08283 z"
       id="path6961"
       inkscape:connector-curvature="0" />
    <rect
       style="fill:#000000;fill-opacity:0;stroke:#000000;stroke-width:0.93741876;stroke-miterlimit:4;stroke-dasharray:none;stroke-opacity:1"
       id="rect6963"
       width="9.6271238"
       height="97.253799"
       x="109.03627"
       y="25.733353"
       ry="13.096207"
       rx="13.096207" />
    <path
       style="fill:#000000;stroke-width:0.99999994"
       d="m 121.87521,53.934554 -0.0293,-0.02941 v -0.403205 -0.403207 h -1.7136 -31.666171 l -0.02459,-0.02469 c -0.03253,-0.03267 -0.03253,-0.07891 0,-0.111584 l 0.02459,-0.02469 h 31.666171 1.7136 v -0.403207 -0.403207 l 0.0293,-0.02941 c 0.0161,-0.01617 0.0398,-0.0294 0.0526,-0.02939 0.0275,2e-5 1.52796,0.86612 1.55362,0.896791 0.01,0.01153 0.0175,0.03354 0.0175,0.04891 0,0.01537 -0.008,0.03739 -0.0175,0.04891 -0.0257,0.03067 -1.52611,0.896769 -1.55362,0.89679 -0.0128,1e-5 -0.0365,-0.01322 -0.0526,-0.02939 z m 0.78471,-0.573538 c 0.31821,-0.18428 0.57856,-0.338455 0.57856,-0.342612 0,-0.0042 -0.26035,-0.15842 -0.57856,-0.342807 -0.31821,-0.184388 -0.59321,-0.343892 -0.61112,-0.354455 l -0.0326,-0.0192 v 0.716305 0.716307 l 0.0326,-0.01924 c 0.0179,-0.01058 0.29291,-0.170015 0.61112,-0.354295 z"
       id="path6976"
       inkscape:connector-curvature="0"
       sodipodi:nodetypes="ccccccccccccccccscccccscccccccc" />
    <path
       sodipodi:nodetypes="ccccccccccccccccscccccscccccccc"
       inkscape:connector-curvature="0"
       id="path6978"
       d="m 121.87521,96.319616 -0.0293,-0.02942 v -0.403197 -0.403211 h -1.7136 -31.666171 l -0.02459,-0.02469 c -0.03253,-0.03267 -0.03253,-0.07891 0,-0.111586 l 0.02459,-0.02469 h 31.666171 1.7136 v -0.403207 -0.40321 l 0.0293,-0.02942 c 0.0161,-0.01617 0.0398,-0.02942 0.0526,-0.02938 0.0275,1.9e-5 1.52796,0.866125 1.55362,0.896795 0.01,0.01152 0.0175,0.03355 0.0175,0.04891 0,0.01539 -0.008,0.03738 -0.0175,0.04891 -0.0257,0.03067 -1.52611,0.896772 -1.55362,0.896794 -0.0128,7e-6 -0.0365,-0.01321 -0.0526,-0.02938 z m 0.78471,-0.57354 c 0.31821,-0.184283 0.57856,-0.338457 0.57856,-0.342614 0,-0.0042 -0.26035,-0.158422 -0.57856,-0.342812 -0.31821,-0.184386 -0.59321,-0.343891 -0.61112,-0.354455 l -0.0326,-0.01919 v 0.71631 0.71631 l 0.0326,-0.01923 c 0.0179,-0.01059 0.29291,-0.170017 0.61112,-0.354296 z"
       style="fill:#000000;stroke-width:0.99999994" />
    <path
       style="fill:#000000;stroke-width:0.99999994"
       d="m 121.87521,96.319616 -0.0293,-0.02942 v -0.403197 -0.403211 h -1.7136 -31.666171 l -0.02459,-0.02469 c -0.03253,-0.03267 -0.03253,-0.07891 0,-0.111586 l 0.02459,-0.02469 h 31.666171 1.7136 v -0.403207 -0.40321 l 0.0293,-0.02942 c 0.0161,-0.01617 0.0398,-0.02942 0.0526,-0.02938 0.0275,1.9e-5 1.52796,0.866125 1.55362,0.896795 0.01,0.01152 0.0175,0.03355 0.0175,0.04891 0,0.01539 -0.008,0.03738 -0.0175,0.04891 -0.0257,0.03067 -1.52611,0.896772 -1.55362,0.896794 -0.0128,7e-6 -0.0365,-0.01321 -0.0526,-0.02938 z m 0.78471,-0.57354 c 0.31821,-0.184283 0.57856,-0.338457 0.57856,-0.342614 0,-0.0042 -0.26035,-0.158422 -0.57856,-0.342812 -0.31821,-0.184386 -0.59321,-0.343891 -0.61112,-0.354455 l -0.0326,-0.01919 v 0.71631 0.71631 l 0.0326,-0.01923 c 0.0179,-0.01059 0.29291,-0.170017 0.61112,-0.354296 z"
       id="path6980"
       inkscape:connector-curvature="0"
       sodipodi:nodetypes="ccccccccccccccccscccccscccccccc" />
    <path
       inkscape:connector-curvature="0"
       id="path6982"
       d="m 81.261626,118.95541 c 0.0036,-0.0217 0.02338,-0.0549 0.04403,-0.0736 0.03527,-0.0321 0.09004,-0.0344 0.906247,-0.0393 l 0.868704,-0.005 v -1.4548 c 0,-1.07073 0.0056,-1.4654 0.02132,-1.49499 0.03099,-0.0584 0.07224,-0.085 0.133097,-0.0856 0.05949,-7.4e-4 0.107202,0.0444 1.178877,1.11243 l 0.572653,0.57071 0.646206,-0.64467 c 0.852149,-0.85013 1.016306,-1.00854 1.063186,-1.02595 0.0481,-0.0179 0.136731,0.0162 0.161075,0.0618 0.01085,0.0204 0.01763,0.59506 0.01763,1.49708 v 1.464 l 0.881409,0.005 0.881409,0.005 0.03503,0.0435 c 0.01926,0.0239 0.03503,0.0705 0.03503,0.10349 0,0.0549 -0.09694,0.15678 -1.140963,1.19884 -2.689469,2.68439 -2.510636,2.51036 -2.579724,2.51036 -0.05766,0 -0.113219,-0.0505 -0.714029,-0.64957 -0.358327,-0.35727 -1.177431,-1.17292 -1.820231,-1.81256 -0.642801,-0.63964 -1.175189,-1.18183 -1.183086,-1.20487 -0.0079,-0.023 -0.01144,-0.0597 -0.0079,-0.0814 z m 2.120789,1.79617 c 0.876688,0.87125 1.59866,1.58408 1.604381,1.58408 0.01417,0 3.196789,-3.16372 3.204471,-3.18544 0.0037,-0.0106 -0.28511,-0.0173 -0.745397,-0.0173 -0.413327,0 -0.764857,-0.005 -0.781176,-0.0114 -0.0831,-0.032 -0.0833,-0.0356 -0.0833,-1.46406 v -1.34847 l -0.747022,0.7481 c -0.410863,0.41146 -0.769648,0.75674 -0.797301,0.7673 -0.03244,0.0124 -0.06633,0.0131 -0.09555,0.002 -0.0249,-0.009 -0.382519,-0.35304 -0.79471,-0.76341 -0.412194,-0.41037 -0.75473,-0.74613 -0.761193,-0.74613 -0.0065,0 -0.01176,0.61448 -0.01176,1.36549 v 1.36549 l -0.03985,0.0426 -0.03985,0.0426 h -0.758973 c -0.46494,0 -0.756607,0.007 -0.752865,0.0173 0.0033,0.009 0.723401,0.73011 1.60009,1.60136 z m -0.278358,-7.37928 c 0.03377,-0.067 0.109886,-0.10471 0.167195,-0.0828 0.02558,0.01 0.422676,0.38984 0.882438,0.84455 l 0.835928,0.82676 0.534704,-0.5323 c 1.154838,-1.14965 1.140978,-1.13655 1.202531,-1.13655 0.07726,0 0.147801,0.069 0.147801,0.14462 0,0.0526 -0.08872,0.14727 -0.889711,0.94921 -0.489341,0.48992 -0.910799,0.90187 -0.936573,0.91543 -0.02734,0.0144 -0.0671,0.0196 -0.09546,0.0125 -0.03097,-0.008 -0.367672,-0.33044 -0.928194,-0.88965 -0.483779,-0.48263 -0.89406,-0.89823 -0.911732,-0.92353 -0.03811,-0.0546 -0.03908,-0.0685 -0.0089,-0.1283 z m -0.0027,1.26028 c 0.03296,-0.0592 0.07354,-0.0828 0.142307,-0.0828 0.06045,0 0.115696,0.0515 0.903769,0.84164 l 0.839388,0.84163 0.839387,-0.84163 c 0.762222,-0.76426 0.844863,-0.84164 0.89894,-0.84164 0.07967,0 0.149245,0.0699 0.150375,0.15102 8.46e-4,0.056 -0.06853,0.12959 -0.902689,0.95843 -0.496944,0.49377 -0.922092,0.9026 -0.944773,0.90851 -0.02268,0.006 -0.06031,0.006 -0.08361,5e-5 -0.06175,-0.0155 -1.843193,-1.79492 -1.854516,-1.85235 -0.005,-0.0253 1.37e-4,-0.0626 0.01142,-0.0828 z"
       style="fill:#000000;stroke-width:1" />
    <path
       sodipodi:nodetypes="ccccccccccccccccscccccscccccccc"
       inkscape:connector-curvature="0"
       id="path6984"
       d="m 121.87521,115.65659 -0.0293,-0.0294 v -0.4032 -0.40321 h -1.7136 -31.666171 l -0.02459,-0.0247 c -0.03253,-0.0327 -0.03253,-0.0789 0,-0.11159 l 0.02459,-0.0247 h 31.666171 1.7136 v -0.40321 -0.40321 l 0.0293,-0.0294 c 0.0161,-0.0162 0.0398,-0.0294 0.0526,-0.0294 0.0275,2e-5 1.52796,0.86613 1.55362,0.8968 0.01,0.0115 0.0175,0.0335 0.0175,0.0489 0,0.0154 -0.008,0.0374 -0.0175,0.0489 -0.0257,0.0307 -1.52611,0.89677 -1.55362,0.89679 -0.0128,1e-5 -0.0365,-0.0132 -0.0526,-0.0294 z m 0.78471,-0.57354 c 0.31821,-0.18429 0.57856,-0.33846 0.57856,-0.34262 0,-0.004 -0.26035,-0.15842 -0.57856,-0.34281 -0.31821,-0.18439 -0.59321,-0.34389 -0.61112,-0.35445 l -0.0326,-0.0192 v 0.7163 0.71631 l 0.0326,-0.0192 c 0.0179,-0.0106 0.29291,-0.17001 0.61112,-0.35429 z"
       style="fill:#000000;stroke-width:0.99999994" />
    <text
       xml:space="preserve"
       style="font-style:normal;font-weight:normal;font-size:2.33904338px;line-height:1.25;font-family:sans-serif;letter-spacing:0px;word-spacing:0px;baseline-shift:baseline;fill:#000000;fill-opacity:1;stroke:none;stroke-width:0.26458332"
       x="109.9444"
       y="51.75824"
       id="text6988"
       transform="scale(0.99788737,1.0021171)"><tspan
         sodipodi:role="line"
         id="tspan6986"
         x="109.9444"
         y="51.75824"
         style="baseline-shift:baseline;stroke-width:0.26458332">A<tspan
   style="font-size:1.52037823px;baseline-shift:sub;stroke-width:0.26458332"
   id="tspan6990">2</tspan>,B<tspan
   style="font-size:1.52037823px;baseline-shift:sub;stroke-width:0.26458332"
   id="tspan6992">2,</tspan>T<tspan
   style="font-size:1.52037823px;baseline-shift:sub;stroke-width:0.26458332"
   id="tspan6994">2</tspan></tspan></text>
    <text
       id="text7004"
       y="93.802528"
       x="111.1974"
       style="font-style:normal;font-weight:normal;font-size:2.33904338px;line-height:1.25;font-family:sans-serif;letter-spacing:0px;word-spacing:0px;baseline-shift:baseline;fill:#000000;fill-opacity:1;stroke:none;stroke-width:0.26458332"
       xml:space="preserve"
       transform="scale(0.99788737,1.0021171)"><tspan
         style="baseline-shift:baseline;stroke-width:0.26458332"
         y="93.802528"
         x="111.1974"
         id="tspan7002"
         sodipodi:role="line">C<tspan
   style="font-size:1.52037823px;baseline-shift:sub;stroke-width:0.26458332"
   id="tspan7006">3</tspan><tspan
   id="tspan6998"
   style="font-size:1.52037823px;baseline-shift:sub;stroke-width:0.26458332">,</tspan>T<tspan
   style="font-size:1.52037823px;baseline-shift:sub;stroke-width:0.26458332"
   id="tspan7008">3</tspan></tspan></text>
    <text
       xml:space="preserve"
       style="font-style:normal;font-weight:normal;font-size:2.33904338px;line-height:1.25;font-family:sans-serif;letter-spacing:0px;word-spacing:0px;baseline-shift:baseline;fill:#000000;fill-opacity:1;stroke:none;stroke-width:0.26458332"
       x="111.1974"
       y="112.90336"
       id="text7018"
       transform="scale(0.99788737,1.0021171)"><tspan
         sodipodi:role="line"
         id="tspan7016"
         x="111.1974"
         y="112.90336"
         style="baseline-shift:baseline;stroke-width:0.26458332">C<tspan
   style="font-size:1.52037823px;baseline-shift:sub;stroke-width:0.26458332"
   id="tspan7022">4</tspan><tspan
   style="font-size:1.52037823px;baseline-shift:sub;stroke-width:0.26458332"
   id="tspan7012">,</tspan>T<tspan
   style="font-size:1.52037823px;baseline-shift:sub;stroke-width:0.26458332"
   id="tspan7020">4</tspan></tspan></text>
    <text
       xml:space="preserve"
       style="font-style:normal;font-weight:normal;font-size:3.89818096px;line-height:1.25;font-family:sans-serif;letter-spacing:0px;word-spacing:0px;fill:#000000;fill-opacity:1;stroke:none;stroke-width:0.26458332"
       x="79.299583"
       y="47.845642"
       id="text7026"
       transform="scale(0.99788737,1.0021171)"><tspan
         sodipodi:role="line"
         id="tspan7024"
         x="79.299583"
         y="47.845642"
         style="font-style:normal;font-variant:normal;font-weight:normal;font-stretch:normal;font-family:'Segoe Print';-inkscape-font-specification:'Segoe Print';stroke-width:0.26458332">Decode</tspan></text>
    <text
       xml:space="preserve"
       style="font-style:normal;font-variant:normal;font-weight:normal;font-stretch:normal;font-size:3.89818096px;line-height:1.25;font-family:'Segoe Print';-inkscape-font-specification:'Segoe Print';letter-spacing:0px;word-spacing:0px;fill:#000000;fill-opacity:1;stroke:none;stroke-width:0.26458332"
       x="76.097504"
       y="87.523552"
       id="text7030"
       transform="scale(0.99788737,1.0021171)"><tspan
         sodipodi:role="line"
         id="tspan7028"
         x="76.097504"
         y="87.523552"
         style="font-style:normal;font-variant:normal;font-weight:normal;font-stretch:normal;font-family:'Segoe Print';-inkscape-font-specification:'Segoe Print';stroke-width:0.26458332">Operand</tspan></text>
    <text
       xml:space="preserve"
       style="font-style:normal;font-variant:normal;font-weight:normal;font-stretch:normal;font-size:3.89818096px;line-height:1.25;font-family:'Segoe Print';-inkscape-font-specification:'Segoe Print';letter-spacing:0px;word-spacing:0px;fill:#000000;fill-opacity:1;stroke:none;stroke-width:0.26458332"
       x="77.350487"
       y="108.54588"
       id="text7034"
       transform="scale(0.99788737,1.0021171)"><tspan
         sodipodi:role="line"
         id="tspan7032"
         x="77.350487"
         y="108.54588"
         style="font-style:normal;font-variant:normal;font-weight:normal;font-stretch:normal;font-family:'Segoe Print';-inkscape-font-specification:'Segoe Print';stroke-width:0.26458332">Execute</tspan></text>
    <text
       xml:space="preserve"
       style="font-style:normal;font-variant:normal;font-weight:normal;font-stretch:normal;font-size:9.69313526px;line-height:1.25;font-family:'Segoe Print';-inkscape-font-specification:'Segoe Print';letter-spacing:0px;word-spacing:0px;fill:#000000;fill-opacity:1;stroke:none;stroke-width:0.26458332"
       x="-83.54969"
       y="117.20792"
       id="text7038"
       transform="matrix(0,-1.0021171,0.99788737,0,0,0)"><tspan
         sodipodi:role="line"
         id="tspan7036"
         x="-83.54969"
         y="117.20792"
         style="font-style:normal;font-variant:normal;font-weight:normal;font-stretch:normal;font-family:'Segoe Print';-inkscape-font-specification:'Segoe Print';stroke-width:0.26458332">IC-2</tspan></text>
    <path
       sodipodi:nodetypes="ccccccccccccccccscccccscccccccc"
       inkscape:connector-curvature="0"
       id="path7040"
       d="m 93.341772,65.246119 0.02929,0.02942 v 0.403207 0.403207 h 1.713595 12.605443 l 0.0246,0.02469 c 0.0325,0.03267 0.0325,0.07891 0,0.111583 l -0.0246,0.02469 H 95.084661 93.371066 v 0.403207 0.403211 l -0.02929,0.02942 c -0.0161,0.01617 -0.03978,0.02942 -0.0526,0.02938 -0.02749,-2.2e-5 -1.527961,-0.866121 -1.553617,-0.89679 -0.0096,-0.01152 -0.01753,-0.03355 -0.01753,-0.04891 0,-0.01535 0.0079,-0.03738 0.01753,-0.04891 0.02566,-0.03067 1.526106,-0.896769 1.553617,-0.896791 0.01283,-1.1e-5 0.0365,0.01321 0.0526,0.02938 z m -0.784709,0.573537 c -0.318206,0.184279 -0.578559,0.338454 -0.578559,0.34261 0,0.0042 0.260353,0.158423 0.578559,0.342809 0.31821,0.184386 0.593213,0.34389 0.611121,0.354454 l 0.03256,0.01919 v -0.716306 -0.716306 l -0.03256,0.01923 c -0.0179,0.01059 -0.292911,0.170013 -0.611121,0.354296 z"
       style="fill:#000000;stroke-width:0.99999994" />
    <text
       xml:space="preserve"
       style="font-style:normal;font-weight:normal;font-size:3.05295157px;line-height:1.25;font-family:sans-serif;letter-spacing:0px;word-spacing:0px;fill:#000000;fill-opacity:1;stroke:none;stroke-width:0.26458332"
       x="97.074814"
       y="65.311478"
       id="text7044"
       transform="scale(0.99788737,1.0021171)"><tspan
         sodipodi:role="line"
         id="tspan7042"
         x="97.074814"
         y="65.311478"
         style="stroke-width:0.26458332">hold</tspan></text>
  </g>
</svg>
